<?xml version="1.0" encoding="UTF-8"?>
<svg id="Layer_1" data-name="Layer 1" xmlns="http://www.w3.org/2000/svg" viewBox="0 0 135 75">
  <defs>
    <style>
      .cls-1 {
        fill: #38b0de;
      }

      .cls-2 {
        fill: #e00;
      }
    </style>
  </defs>
  <g>
    <path class="cls-2" d="m4.64,13.61h2.43v17.29h-2.43V13.61Zm1.25,8.28h5.53c.52,0,.98-.12,1.38-.37.4-.25.7-.59.92-1.05.22-.45.33-.97.33-1.56s-.11-1.12-.33-1.57c-.22-.45-.53-.8-.92-1.05-.4-.25-.86-.37-1.38-.37h-5.53v-2.31h5.45c1.03,0,1.94.22,2.72.66.78.44,1.39,1.06,1.83,1.86.43.8.65,1.73.65,2.78s-.22,1.98-.65,2.78c-.43.8-1.04,1.41-1.83,1.85-.79.44-1.69.65-2.72.65h-5.45v-2.31Z"/>
    <path class="cls-2" d="m19.57,13.61h2.43v17.29h-2.43V13.61Zm1.18,0h9.93v2.31h-9.93v-2.31Zm0,7.55h8.62v2.31h-8.62v-2.31Zm0,7.43h9.93v2.31h-9.93v-2.31Z"/>
    <path class="cls-2" d="m32.22,13.61h12.2v2.31h-12.2v-2.31Zm4.89,1.42h2.43v15.88h-2.43v-15.88Z"/>
    <path class="cls-2" d="m46.81,13.61h2.43v17.29h-2.43V13.61Zm1.18,0h9.93v2.31h-9.93v-2.31Zm0,7.55h8.62v2.31h-8.62v-2.31Zm0,7.43h9.93v2.31h-9.93v-2.31Z"/>
    <path class="cls-2" d="m61.36,13.6h2.43v17.31h-2.43V13.6Zm1.06,7.68h5.9c.46,0,.87-.11,1.23-.33s.63-.54.83-.95c.19-.41.29-.88.29-1.41s-.1-1-.29-1.41c-.19-.41-.47-.72-.82-.95s-.76-.33-1.23-.33h-5.9v-2.31h5.8c1,0,1.88.21,2.63.62.76.41,1.34,1,1.76,1.75.42.76.62,1.63.62,2.62s-.21,1.87-.63,2.62-1.01,1.34-1.77,1.75c-.76.41-1.63.62-2.62.62h-5.8v-2.31Zm4.71,1.77l2.41-.55,4.42,8.4h-2.88l-3.96-7.85Z"/>
    <path class="cls-2" d="m75.34,13.61h2.64l4.15,13.56,4.15-13.56h2.64l-5.64,17.29h-2.31l-5.64-17.29Z"/>
    <path class="cls-2" d="m95.06,13.61h2.07l6.38,17.29h-2.62l-4.79-13.95-4.79,13.95h-2.62l6.38-17.29Zm-3.44,11.19h9.1v2.31h-9.1v-2.31Z"/>
    <path class="cls-2" d="m106.12,13.61h2.43v17.29h-2.43V13.61Zm1.21,14.99h9.9v2.31h-9.9v-2.31Z"/>
    <path class="cls-2" d="m120.08,13.61h2.43v17.29h-2.43V13.61Zm1.18,0h9.93v2.31h-9.93v-2.31Zm0,7.55h8.62v2.31h-8.62v-2.31Zm0,7.43h9.93v2.31h-9.93v-2.31Z"/>
  </g>
  <g>
    <path class="cls-1" d="m5.1,36.73h2.94v20.96h-2.94v-20.96Zm1.51,10.04h6.7c.63,0,1.19-.15,1.67-.45.48-.3.85-.72,1.12-1.27.26-.55.4-1.18.4-1.89s-.13-1.36-.4-1.9c-.26-.55-.64-.97-1.12-1.28-.48-.3-1.04-.45-1.67-.45h-6.7v-2.8h6.6c1.25,0,2.35.27,3.3.8.95.53,1.69,1.29,2.21,2.26.52.97.79,2.1.79,3.37s-.26,2.4-.79,3.37c-.52.97-1.26,1.71-2.21,2.24-.95.53-2.05.79-3.3.79h-6.6v-2.8Z"/>
    <path class="cls-1" d="m23.19,36.72h2.94v20.98h-2.94v-20.98Zm1.28,9.31h7.15c.56,0,1.05-.13,1.49-.4.43-.27.77-.65,1-1.15.24-.5.35-1.06.35-1.71s-.12-1.21-.35-1.71c-.24-.5-.57-.88-.99-1.15-.43-.27-.93-.4-1.49-.4h-7.15v-2.8h7.04c1.21,0,2.28.25,3.19.75s1.63,1.21,2.13,2.13c.5.92.76,1.98.76,3.18s-.25,2.26-.76,3.18c-.51.92-1.22,1.63-2.14,2.13s-1.98.75-3.18.75h-7.04v-2.8Zm5.71,2.15l2.93-.66,5.36,10.18h-3.49l-4.8-9.52Z"/>
    <path class="cls-1" d="m45.38,57.7h-2.94v-20.96h2.94v20.96Z"/>
    <path class="cls-1" d="m50.57,36.73h2.67l10.25,16.21-.35.37v-16.58h2.91v20.95h-2.7l-10.22-15.96.35-.38v16.34h-2.91v-20.95Z"/>
    <path class="cls-1" d="m69.52,36.73h14.79v2.8h-14.79v-2.8Zm5.93,1.72h2.94v19.25h-2.94v-19.25Z"/>
    <path class="cls-1" d="m90.14,57.7h-2.94v-20.96h2.94v20.96Z"/>
    <path class="cls-1" d="m95.33,36.73h2.67l10.25,16.21-.35.37v-16.58h2.91v20.95h-2.7l-10.22-15.96.35-.38v16.34h-2.91v-20.95Z"/>
    <path class="cls-1" d="m130.34,46.41v3.66c0,1.56-.3,2.93-.91,4.12-.61,1.19-1.46,2.1-2.57,2.75-1.11.65-2.4.97-3.86.97s-2.78-.3-3.9-.92c-1.12-.61-1.99-1.47-2.6-2.59s-.92-2.41-.92-3.88v-6.19c0-1.56.3-2.93.91-4.11.61-1.18,1.46-2.1,2.57-2.75s2.4-.97,3.86-.97c1.2,0,2.31.26,3.32.77,1.01.51,1.86,1.24,2.54,2.18.68.94,1.14,2.03,1.38,3.27h-3.19c-.17-.7-.47-1.3-.88-1.81-.41-.5-.9-.89-1.46-1.15-.56-.26-1.13-.4-1.73-.4-.87,0-1.62.21-2.28.62-.65.41-1.16.99-1.51,1.74-.36.75-.53,1.61-.53,2.6v6.19c0,.9.18,1.69.55,2.37s.88,1.2,1.55,1.58c.67.38,1.44.56,2.31.56s1.62-.19,2.28-.58c.65-.39,1.16-.95,1.51-1.69.36-.74.53-1.62.53-2.64v-.91h-4.25v-2.81h7.27Z"/>
  </g>
</svg>