<?xml version="1.0" encoding="UTF-8"?>
<svg id="Layer_1" data-name="Layer 1" xmlns="http://www.w3.org/2000/svg" viewBox="0 0 500 500">
  <defs>
    <style>
      .cls-1 {
        fill: none;
      }

      .cls-1, .cls-2 {
        stroke-width: .25px;
      }

      .cls-1, .cls-2, .cls-3 {
        stroke-miterlimit: 10;
      }

      .cls-1, .cls-3 {
        stroke: #231f20;
      }

      .cls-2 {
        fill: #fff;
        stroke: #2e3192;
      }

      .cls-4 {
        fill: #38b0de;
      }

      .cls-3 {
        fill: #f5f5f5;
        stroke-width: .5px;
      }

      .cls-5 {
        fill: #e00;
      }
    </style>
  </defs>
  <circle class="cls-5" cx="250" cy="250" r="240"/>
  <path class="cls-3" d="m95.44,223.38l18.06-53.73c3.3-9.82,12.51-16.44,22.87-16.44h230.08c9.01,0,17.01,5.79,19.81,14.36l18.28,55.81"/>
  <path class="cls-3" d="m123.88,392.16h252.25l-16.94-35.09h23.29c12.19,0,22.08-9.89,22.08-22.08v-111.61H95.44v115.97c0,9.08,7.43,16.4,16.51,16.26l23.42-.35-11.49,36.9Z"/>
  <polygon class="cls-4" points="358.94 376.73 141.06 376.73 168.39 311.7 326.27 311.7 358.94 376.73"/>
  <polygon class="cls-5" points="156.2 164.03 154.39 183.99 345.61 183.99 345.61 164.03 318.7 164.03 318.7 171.51 179.79 171.72 179.79 164.03 156.2 164.03"/>
  <path class="cls-1" d="m142.53,153.21l-12.02,31.66c-4.33,11.41,4.1,23.62,16.3,23.62h206.38c11.2,0,19.5-10.42,16.99-21.33l-7.8-33.94"/>
  <path class="cls-2" d="m180.47,171.72l1.14-39.83c0-11.69,9.48-21.17,21.17-21.17h95.58c11.69,0,21.17,9.48,21.17,21.17l-.15,39.62-138.91.21Z"/>
  <rect class="cls-5" x="196.77" y="126.29" width="106.47" height="8.17" rx="3.24" ry="3.24"/>
  <rect class="cls-5" x="196.77" y="149.13" width="106.47" height="8.17" rx="3.24" ry="3.24"/>
</svg>